<svg xmlns="http://www.w3.org/2000/svg" viewBox="0 0 750 500"><defs><style>.cls-1,.cls-4{fill:#b5e3f3;}.cls-1{opacity:0.76;}.cls-2{fill:#e0f3f8;}.cls-2,.cls-3{opacity:0.51;}.cls-3{fill:#8cbecc;}.cls-5{fill:#8fd7ee;}.cls-6{fill:#6bcde7;}.cls-7{fill:#29bfce;}.cls-8{fill:#7dc5e5;}.cls-9{fill:#96d8ef;}</style></defs><title>adv01</title><g id="Layer_5" data-name="Layer 5"><circle class="cls-1" cx="39.85" cy="385.66" r="127.66"/><circle class="cls-1" cx="142.09" cy="21.29" r="91.96"/><circle class="cls-1" cx="604.8" cy="31.27" r="56.78"/><circle class="cls-1" cx="436.55" cy="88.06" r="29.3"/><circle class="cls-1" cx="599.95" cy="204.63" r="56.78"/><circle class="cls-1" cx="748.35" cy="108.59" r="56.78"/><circle class="cls-1" cx="718.34" cy="385.66" r="56.78"/><circle class="cls-1" cx="492.76" cy="523.66" r="56.78"/><circle class="cls-1" cx="242.1" cy="496.44" r="56.78"/></g><g id="Layer_4" data-name="Layer 4"><path class="cls-2" d="M49.82,358.41s27.48,64.54,69.82,36.1c34.56-23.21,72.46-23.25,83-20.92,28.32,6.26,45.9,35.36,93.12-2.52,23.88-19.15,15.78-55.1,85.75-99.71,19.28-12.29,62.16-98.31,10.09-132.28s-74-95.47-75.64-115.53-78-82.6-108.53-57.73-78.27,29.1-90.52,20.26S10.16-27.7,9.09,60.36c-.3,24.54-39,55.32-51.82,65.39s-25.87,60,28.39,107.25,58.58,72.12,58.58,72.12Z"/><path class="cls-3" d="M103.09,367.11c11.58-4.74,40.87-14.56,47.5-13.9s32.35-3.19,33.24-10.73,1-35.68-6.78-47.31-22.09-6.91-37-9.61-22.85-7.22-33.63-10.06-22.08,1.66-21.22,19.83,1,24.3-2.84,37.54S84.62,374.68,103.09,367.11Z"/><path class="cls-3" d="M252.71,358.51c13.61,1.9,26.58-19.17,34.44-29.37s14.9-26.91,24.6-32.77,28.3-16.32,19-27.84L321.46,257s-21.84,0-39.35-5.83S259.51,229,241.63,230.45s-37.78,3.35-35.18,28.27.35,41.83,1.37,56.41,14.35,35.35,23.62,39.09S252.71,358.51,252.71,358.51Z"/><path class="cls-3" d="M250.18,166.09c27.89,17.31,45.1,17.93,55.43,31.16s18.43,43.39,45.74,40.91c24.89-2.26,36.21-42.13,32.42-51.52s.18-19.58-12.55-32.92S352,137.31,337,115.18c0,0-6.39-28.85-37.57-21.7S246.66,142,244.9,143.7,237.43,158.18,250.18,166.09Z"/><path class="cls-3" d="M218,153.48s5.35-49.2,18.87-64.24,45-34.68,44-50.15S216.26-13.11,201.36-4.5,153,17.35,145.82,21.8s-25.46.52-26.73,14.78,3.46,32.51,7.55,40.56,9.89,22,26.88,36.68S205.31,167.45,218,153.48Z"/><path class="cls-3" d="M23.3,227.61C20.43,225.44-1.48,216.2-8.23,205s-25.67-27-21.88-41.36,22.55-31,28.26-39.6,17.5-30.5,21.29-31.23,24.91-3.14,32.62,7.67S64.28,167.8,64.3,175.58,56.7,221,50.8,222.84,23.3,227.61,23.3,227.61Z"/><path class="cls-3" d="M80.6,227.26c.49-10.79,2.49-41.22,2.12-49.57s-3.79-29.48,9.95-31.24,28.4-10.62,36.27-6.81,31.71,26.49,37.84,29.56,17.79,3,25.82,9.87,25.32,5.73,17.05,18.52-10.06,24-13.46,33.84S189,259.12,188,266.72s-19,2.15-28.89-1.24-24.18-11.62-35.5-12.31S79.35,254.8,80.6,227.26Z"/><path class="cls-2" d="M576.08,312.91s-41.79,17.79-23.37,45.21c15,22.38,15.05,46.92,13.55,53.73-4.05,18.33-22.9,29.72,1.63,60.29,12.4,15.46,35.68,10.22,64.56,55.52,8,12.48,63.65,40.25,85.65,6.53s61.82-47.94,74.8-49,53.48-50.53,37.38-70.27-18.84-50.67-13.12-58.61,8.92-69.1-48.09-69.8c-15.89-.19-35.82-25.27-42.34-33.55s-38.83-16.75-69.44,18.38-46.69,37.93-46.69,37.93Z"/><path class="cls-3" d="M570.44,347.4c3.07,7.5,9.43,26.46,9,30.76s2.06,20.94,7,21.52,23.1.67,30.63-4.39,4.47-14.3,6.22-23.93,4.68-14.8,6.51-21.77-1.07-14.3-12.84-13.74-15.74.67-24.31-1.84S565.54,335.44,570.44,347.4Z"/><path class="cls-3" d="M576,444.27c-1.23,8.81,12.42,17.21,19,22.3s17.43,9.64,21.22,15.93,10.57,18.33,18,12.31l7.46-6s0-14.14,3.77-25.48,14.36-14.63,13.42-26.21-2.17-24.46-18.3-22.78-27.09.23-36.53.89-22.89,9.29-25.31,15.29S576,444.27,576,444.27Z"/><path class="cls-3" d="M700.6,442.63c-11.21,18.06-11.61,29.2-20.17,35.89s-28.09,11.93-26.49,29.62c1.47,16.11,27.28,23.45,33.36,21s12.68.11,21.31-8.13,10.62-12.47,25-22.14c0,0,18.68-4.14,14-24.33s-31.41-34.19-32.52-35.32S705.72,434.38,700.6,442.63Z"/><path class="cls-3" d="M708.77,421.81s31.85,3.46,41.59,12.22,22.45,29.11,32.47,28.46,33.8-41.82,28.22-51.47-14.15-31.3-17-36-.34-16.48-9.57-17.3-21,2.24-26.26,4.89S744,369.05,734.45,380,699.72,413.58,708.77,421.81Z"/><path class="cls-3" d="M660.77,295.73c1.4-1.85,7.38-16,14.61-20.42s17.48-16.62,26.78-14.17,20.08,14.6,25.64,18.3,19.75,11.33,20.22,13.78,2,16.13-5,21.12-43.56,7.91-48.59,7.93-29.41-4.92-30.6-8.74S660.77,295.73,660.77,295.73Z"/><path class="cls-3" d="M661,332.83c7,.32,26.69,1.61,32.1,1.37s19.08-2.45,20.23,6.44,6.88,18.39,4.41,23.48-17.15,20.53-19.14,24.5-2,11.52-6.39,16.72-3.71,16.4-12,11-15.54-6.52-21.91-8.72a152.94,152.94,0,0,0-22.85-5.27c-4.92-.64-1.39-12.32.8-18.71s7.53-15.66,8-23S643.16,332,661,332.83Z"/></g><g id="Layer_2" data-name="Layer 2"><circle class="cls-4" cx="386.57" cy="335.41" r="77.4"/><circle class="cls-5" cx="348.51" cy="362.74" r="58.74"/><circle class="cls-6" cx="328.29" cy="382.96" r="45.76"/><circle class="cls-7" cx="307.52" cy="404.73" r="34.01"/></g><g id="Layer_1" data-name="Layer 1"><path class="cls-8" d="M763.42-13.3l-310,268s-51,41.67-24,101c33,62,89.33,27,96,21,4.08-3.91,20-17,3-35-7.67-7.67-21.67-6.67-28,11-7,21-31,13-50-8-16.67-28.67.14-53.69,17-73l310-271Z"/><path class="cls-9" d="M772.3-1.31,493.84,241.07s-46.94,34.38-23.13,70.14c28.53,34,59.08,17.13,63.44,13.17,2.67-2.58,13.1-11.21,1.78-22.87-5.1-5-14.33-4.23-18.41,7.34-4.5,13.75-20.38,8.66-33-4.94-11.15-18.62,10-34.77,22.13-47.73L785.08,11.12Z"/><path class="cls-4" d="M781.11,3.65,518.36,236.31S489.22,257.65,504,279.85c17.71,21.09,36.67,10.63,39.38,8.18,1.66-1.6,8.13-7,1.11-14.19-3.17-3.08-8.89-2.63-11.43,4.55-2.79,8.53-12.65,5.38-20.5-3.07-6.92-11.56,6.21-21.58,13.74-29.62L789,11.37Z"/><path class="cls-8" d="M773.31-.52,463.05,267.18s-48.64,44.39-103.42,9c-56.54-41.67-13.71-92.31-6.81-98,4.46-3.46,19.73-17.31,35.06,2.12,6.47,8.7,3.44,22.41-15,26.1-21.8,3.87-17.37,28.78.64,50.63,25.94,20.66,53.14,7.68,74.7-6.2L761.49-16.41Z"/><path class="cls-9" d="M762.74-11.06,482.42,229.17s-40.85,41.43-72.76,12.67c-29.47-33.17-8.35-60.94-3.8-64.68,2.94-2.26,13-11.33,22.88,1.56,4.17,5.77,2.1,14.79-9.94,17.15-14.26,2.45-11.53,18.9.08,33.39,16.8,13.74,35.86-4.84,50.44-15l283-239.82Z"/><path class="cls-4" d="M759.11-20.5,490.69,205.61s-25.35,25.72-45.16,7.87c-18.29-20.59-5.18-37.83-2.36-40.15,1.82-1.41,8.07-7,14.2,1,2.59,3.58,1.3,9.18-6.17,10.64-8.85,1.52-7.16,11.73.05,20.73,10.43,8.53,22.26-3,31.31-9.28L752.63-29.47Z"/></g></svg>