<svg id="Layer_6" data-name="Layer 6" xmlns="http://www.w3.org/2000/svg" viewBox="0 0 750 500"><defs><style>.cls-1{fill:#f7ebe1;}.cls-1,.cls-3{opacity:0.51;}.cls-2{fill:#e89088;opacity:0.76;}.cls-3{fill:#cdad8d;}.cls-4{fill:#f2dcb6;}.cls-5{fill:#edd091;}.cls-6{fill:#e39f6d;}.cls-7{fill:#cc2e2e;}.cls-8{fill:#e27d7d;}.cls-9{fill:#ecc297;}.cls-10{fill:#f2d6b7;}</style></defs><title>adv02</title><path class="cls-1" d="M178.11,178s41.79-17.79,23.37-45.21c-15-22.38-15.05-46.92-13.55-53.73,4.05-18.33,22.9-29.72-1.63-60.29C173.91,3.3,150.63,8.54,121.75-36.76,113.79-49.24,58.1-77,36.1-43.29s-61.82,47.94-74.8,49S-92.18,56.21-76.08,76-57.24,126.63-63,134.56s-8.92,69.1,48.09,69.8C1,204.55,21,229.63,27.47,237.91s38.83,16.75,69.44-18.38S143.6,181.6,143.6,181.6Z"/><circle class="cls-2" cx="35.86" cy="105.23" r="56.78"/><circle class="cls-2" cx="714.34" cy="105.23" r="127.66"/><circle class="cls-2" cx="612.11" cy="469.6" r="91.96"/><circle class="cls-2" cx="149.39" cy="459.62" r="56.78"/><circle class="cls-2" cx="317.64" cy="402.84" r="29.3"/><circle class="cls-2" cx="154.25" cy="286.26" r="56.78"/><circle class="cls-2" cx="5.84" cy="382.3" r="56.78"/><circle class="cls-2" cx="261.43" cy="-32.77" r="56.78"/><circle class="cls-2" cx="512.1" cy="-5.55" r="56.78"/><path class="cls-1" d="M704.37,132.49s-27.48-64.54-69.82-36.1c-34.56,23.21-72.46,23.25-83,20.92-28.32-6.26-45.9-35.36-93.12,2.52-23.88,19.15-15.78,55.1-85.75,99.71-19.28,12.29-62.16,98.31-10.09,132.28s74,95.47,75.64,115.53,78,82.6,108.53,57.73S625,496,637.31,504.81,744,518.59,745.11,430.54c.3-24.54,39-55.32,51.82-65.39s25.87-60-28.39-107.25S710,185.79,710,185.79Z"/><path class="cls-3" d="M651.1,123.78c-11.58,4.74-40.87,14.56-47.5,13.9s-32.35,3.19-33.24,10.73-1,35.68,6.78,47.31,22.09,6.91,37,9.61,22.85,7.22,33.63,10.06,22.08-1.66,21.22-19.83-1-24.3,2.84-37.54S669.57,116.21,651.1,123.78Z"/><path class="cls-3" d="M501.49,132.39c-13.61-1.9-26.58,19.17-34.44,29.37s-14.9,26.91-24.6,32.77-28.3,16.32-19,27.84l9.3,11.52s21.84,0,39.35,5.83,22.59,22.18,40.48,20.72,37.78-3.35,35.18-28.27-.35-41.83-1.37-56.41S532,140.41,522.77,136.67,501.49,132.39,501.49,132.39Z"/><path class="cls-3" d="M504,324.8c-27.89-17.31-45.1-17.93-55.43-31.16s-18.43-43.39-45.74-40.91C378,255,366.63,294.87,370.42,304.26s-.18,19.58,12.55,32.92,19.26,16.41,34.19,38.54c0,0,6.39,28.85,37.57,21.7s52.8-48.5,54.56-50.22S516.76,332.71,504,324.8Z"/><path class="cls-3" d="M536.18,337.41s-5.35,49.2-18.87,64.24-45,34.68-44,50.15,64.59,52.2,79.49,43.59,48.34-21.85,55.54-26.3,25.46-.52,26.73-14.78-3.46-32.51-7.55-40.56-9.89-22-26.88-36.68S548.88,323.44,536.18,337.41Z"/><path class="cls-3" d="M730.89,263.28c2.86,2.16,24.78,11.4,31.53,22.56s25.67,27,21.88,41.36-22.55,31-28.26,39.6-17.5,30.5-21.29,31.23-24.91,3.14-32.62-7.67-12.22-67.28-12.24-75.05,7.61-45.43,13.5-47.27S730.89,263.28,730.89,263.28Z"/><path class="cls-3" d="M673.6,263.63c-.49,10.79-2.49,41.22-2.12,49.57s3.79,29.48-9.95,31.24-28.4,10.62-36.27,6.81-31.71-26.49-37.84-29.56-17.79-3-25.82-9.87-25.32-5.73-17.05-18.52,10.06-24,13.46-33.84,7.16-27.69,8.14-35.3,19-2.15,28.89,1.24,24.18,11.62,35.5,12.31S674.84,236.09,673.6,263.63Z"/><path class="cls-3" d="M183.75,143.5c-3.07-7.5-9.43-26.46-9-30.76s-2.06-20.94-7-21.52-23.1-.67-30.63,4.39-4.47,14.3-6.22,23.93-4.68,14.8-6.51,21.77,1.07,14.3,12.84,13.74,15.74-.67,24.31,1.84S188.65,155.45,183.75,143.5Z"/><path class="cls-3" d="M178.18,46.62c1.23-8.81-12.42-17.21-19-22.3S141.73,14.68,137.94,8.4s-10.57-18.33-18-12.31l-7.46,6s0,14.14-3.77,25.48S94.32,42.22,95.27,53.8s2.17,24.46,18.3,22.78,27.09-.23,36.53-.89S173,66.4,175.41,60.4,178.18,46.62,178.18,46.62Z"/><path class="cls-3" d="M53.59,48.26C64.8,30.2,65.2,19.06,73.77,12.37S101.86.44,100.25-17.25C98.79-33.36,73-40.69,66.89-38.24s-12.68-.11-21.31,8.13S35-17.64,20.63-8c0,0-18.68,4.14-14,24.33S38,50.54,39.1,51.68,48.47,56.51,53.59,48.26Z"/><path class="cls-3" d="M45.43,69.08S13.57,65.62,3.84,56.87-18.62,27.75-28.64,28.4s-33.8,41.82-28.22,51.47,14.15,31.3,17,36,.34,16.48,9.57,17.3,21-2.24,26.26-4.89,14.22-6.41,23.75-17.4S54.48,77.31,45.43,69.08Z"/><path class="cls-3" d="M93.42,195.16C92,197,86,211.2,78.81,215.58S61.33,232.2,52,229.75,32,215.15,26.4,211.44,6.65,200.12,6.18,197.66s-2-16.13,5-21.12,43.56-7.91,48.59-7.93,29.41,4.92,30.6,8.74S93.42,195.16,93.42,195.16Z"/><path class="cls-3" d="M93.2,158.06c-7-.32-26.69-1.61-32.1-1.37S42,159.14,40.88,150.25,34,131.86,36.47,126.76s17.15-20.53,19.14-24.5,2-11.52,6.39-16.72,3.71-16.4,12-11S89.52,81,95.9,83.22a152.94,152.94,0,0,0,22.85,5.27c4.92.64,1.39,12.32-.8,18.71s-7.53,15.66-8,23S111,158.87,93.2,158.06Z"/><path class="cls-4" d="M296.3,125.36c-26.73-14,39.26-47.27,71.32-47.27a77.42,77.42,0,0,1,28.05,149.57s-42.49-15-70.33-7.32c-7.91,2.18-13-10-18.1-16.42C307.24,203.91,326.61,141.22,296.3,125.36Z"/><circle class="cls-5" cx="405.68" cy="128.16" r="58.74"/><circle class="cls-6" cx="425.91" cy="107.93" r="45.76"/><circle class="cls-7" cx="446.67" cy="86.17" r="34.01"/><path class="cls-8" d="M-9.22,504.19l310-268s51-41.67,24-101c-33-62-89.33-27-96-21-4.08,3.91-20,17-3,35,7.67,7.67,21.67,6.67,28-11,7-21,31-13,50,8,16.67,28.67-.14,53.69-17,73l-310,271Z"/><path class="cls-9" d="M-18.11,492.2,260.36,249.82s46.94-34.38,23.13-70.14c-28.53-34-59.08-17.13-63.44-13.17-2.67,2.58-13.1,11.21-1.78,22.87,5.1,5,14.33,4.23,18.41-7.34,4.5-13.75,20.38-8.66,33,4.94,11.15,18.62-10,34.77-22.13,47.73L-30.88,479.77Z"/><path class="cls-10" d="M-26.92,487.24,235.84,254.58S265,233.24,250.19,211c-17.71-21.09-36.67-10.63-39.38-8.18-1.66,1.6-8.13,7-1.11,14.19,3.17,3.08,8.89,2.63,11.43-4.55,2.79-8.53,12.65-5.38,20.5,3.07,6.92,11.56-6.21,21.58-13.74,29.62L-34.85,479.52Z"/><path class="cls-8" d="M-19.11,491.42l310.26-267.7s48.64-44.39,103.42-9c56.54,41.67,13.71,92.31,6.81,98-4.46,3.46-19.73,17.31-35.06-2.12-6.47-8.7-3.44-22.41,15-26.1,21.8-3.87,17.37-28.78-.64-50.63-25.94-20.66-53.14-7.68-74.7,6.2L-7.3,507.31Z"/><path class="cls-9" d="M-8.55,502,271.78,261.72s40.85-41.43,72.76-12.67c29.47,33.17,8.35,60.94,3.8,64.68-2.94,2.26-13,11.33-22.88-1.56-4.17-5.77-2.1-14.79,9.94-17.15,14.26-2.45,11.53-18.9-.08-33.39-16.8-13.74-35.86,4.84-50.44,15L1.89,516.4Z"/><path class="cls-10" d="M-4.92,511.39,263.5,285.29s25.35-25.72,45.16-7.87C327,298,313.85,315.25,311,317.57c-1.82,1.41-8.07,7-14.2-1-2.59-3.58-1.3-9.18,6.17-10.64,8.85-1.52,7.16-11.73-.05-20.73-10.43-8.53-22.26,3-31.31,9.28L1.56,520.36Z"/></svg>